<svg width="48" height="48" viewBox="0 0 48 48" fill="none" xmlns="http://www.w3.org/2000/svg">
<path fill-rule="evenodd" clip-rule="evenodd" d="M19 21C19 20.4477 19.4477 20 20 20H28C28.5523 20 29 20.4477 29 21C29 21.5523 28.5523 22 28 22H20C19.4477 22 19 21.5523 19 21Z" fill="#868B90"/>
<path fill-rule="evenodd" clip-rule="evenodd" d="M19 25C19 24.4477 19.4477 24 20 24H24C24.5523 24 25 24.4477 25 25C25 25.5523 24.5523 26 24 26H20C19.4477 26 19 25.5523 19 25Z" fill="#868B90"/>
<path fill-rule="evenodd" clip-rule="evenodd" d="M18.7196 29.4636C19.0791 29.164 19.5321 29 20 29H31C31.5523 29 32 28.5523 32 28V18C32 17.4477 31.5523 17 31 17H17C16.4477 17 16 17.4477 16 18V31.7299L18.7196 29.4636ZM20 31H31C32.6569 31 34 29.6569 34 28V18C34 16.3432 32.6569 15 31 15H17C15.3432 15 14 16.3432 14 18V31.7299C14 33.4256 15.9777 34.3519 17.2804 33.2664L20 31Z" fill="#868B90"/>
</svg>
