<svg width="48" height="48" viewBox="0 0 48 48" fill="none" xmlns="http://www.w3.org/2000/svg">
<path fill-rule="evenodd" clip-rule="evenodd" d="M14 28.5959C14 28.2151 14.1547 27.8506 14.4286 27.586L15.4576 26.5922C15.8493 26.2139 16.0698 25.6922 16.0681 25.1476L16.0587 21.9946C16.0454 17.5832 19.6179 14 24.0293 14C28.4314 14 32 17.5686 32 21.9707V25.1716C32 25.702 32.2107 26.2107 32.5858 26.5858L33.5858 27.5858C33.851 27.851 34 28.2107 34 28.5858C34 29.3668 33.3668 30 32.5858 30H28C28 32.2091 26.2091 34 24 34C21.7909 34 20 32.2091 20 30H15.4041C14.6286 30 14 29.3714 14 28.5959ZM22 30C22 31.1046 22.8954 32 24 32C25.1046 32 26 31.1046 26 30H22ZM30 25.1716C30 26.2324 30.4214 27.2499 31.1716 28H16.8785C17.6422 27.246 18.0714 26.2161 18.0681 25.1416L18.0587 21.9886C18.0487 18.6841 20.7248 16 24.0293 16C27.3268 16 30 18.6732 30 21.9707V25.1716Z" fill="#868B90"/>
<circle cx="30" cy="15" r="6" fill="#FE5A5A"/>
</svg>
